ffmpeg started on 2016-11-27 at 07:53:58
Report written to "Output/NVENCh264/results/ffmpeg/sintelllhq5000k.log"
Command line:
Tools/ffmpeg/ffmpeg -benchmark -y -i Input/y4m/sintel.y4m -c:v h264_nvenc -preset llhq -b:v 5000k -an Output/NVENCh264/encoded/sintelllhq5000k.mkv
ffmpeg version N-82227-gdb23fde Copyright (c) 2000-2016 the FFmpeg developers
  built with gcc 5.4.0 (Ubuntu 5.4.0-6ubuntu1~16.04.2) 20160609
  configuration: --prefix=/home/jaroslav/ffmpeg_build --pkg-config-flags=--static --extra-cflags=-I/home/jaroslav/ffmpeg_build/include --extra-ldflags=-L/home/jaroslav/ffmpeg_build/lib --bindir=/home/jaroslav/bin --enable-gpl --enable-libass --enable-libfdk-aac --enable-libfreetype --enable-libmp3lame --enable-libopus --enable-libtheora --enable-libvorbis --enable-libvpx --enable-libx264 --enable-libx265 --enable-nvenc --enable-libmfx --enable-libxvid --enable-libgsm --enable-libopencore-amrnb --enable-version3 --enable-nonfree
  libavutil      55. 35.100 / 55. 35.100
  libavcodec     57. 66.101 / 57. 66.101
  libavformat    57. 57.100 / 57. 57.100
  libavdevice    57.  2.100 / 57.  2.100
  libavfilter     6. 66.100 /  6. 66.100
  libswscale      4.  3.100 /  4.  3.100
  libswresample   2.  4.100 /  2.  4.100
  libpostproc    54.  2.100 / 54.  2.100
Input #0, yuv4mpegpipe, from 'Input/y4m/sintel.y4m':
  Duration: 00:00:20.83, start: 0.000000, bitrate: 2057307 kb/s
    Stream #0:0: Video: rawvideo (I420 / 0x30323449), yuv420p(progressive), 4096x1744, SAR 1:1 DAR 256:109, 24 fps, 24 tbr, 24 tbn, 24 tbc
[h264_nvenc @ 0x35741c0] The variable bitrate rate-control requires the 'qmin' and/or 'qmax' option set.
Output #0, matroska, to 'Output/NVENCh264/encoded/sintelllhq5000k.mkv':
  Metadata:
    encoder         : Lavf57.57.100
    Stream #0:0: Video: h264 (h264_nvenc) (Main) (H264 / 0x34363248), yuv420p, 4096x1744 [SAR 1:1 DAR 256:109], q=-1--1, 5000 kb/s, 24 fps, 1k tbn, 24 tbc
    Metadata:
      encoder         : Lavc57.66.101 h264_nvenc
    Side data:
      cpb: bitrate max/min/avg: 0/0/5000000 buffer size: 10000000 vbv_delay: -1
Stream mapping:
  Stream #0:0 -> #0:0 (rawvideo (native) -> h264 (h264_nvenc))
Press [q] to stop, [?] for help
frame=   22 fps=0.0 q=0.0 size=       0kB time=00:00:00.00 bitrate=N/A speed=   0x    frame=   43 fps= 42 q=41.0 size=       1kB time=00:00:00.50 bitrate=  11.9kbits/s speed=0.485x    frame=   64 fps= 42 q=42.0 size=       1kB time=00:00:01.37 bitrate=   4.3kbits/s speed=0.892x    frame=   85 fps= 41 q=40.0 size=       1kB time=00:00:02.25 bitrate=   2.7kbits/s speed= 1.1x    frame=  106 fps= 41 q=39.0 size=       1kB time=00:00:03.12 bitrate=   1.9kbits/s speed=1.22x    frame=  127 fps= 41 q=37.0 size=       1kB time=00:00:04.00 bitrate=   1.5kbits/s speed= 1.3x    frame=  147 fps= 41 q=39.0 size=    2826kB time=00:00:04.83 bitrate=4789.6kbits/s speed=1.35x    frame=  148 fps= 20 q=38.0 size=    2826kB time=00:00:04.87 bitrate=4748.4kbits/s speed=0.645x    frame=  149 fps= 14 q=38.0 size=    2826kB time=00:00:04.91 bitrate=4707.8kbits/s speed=0.451x    frame=  150 fps= 11 q=38.0 size=    2826kB time=00:00:04.95 bitrate=4668.9kbits/s speed=0.348x    frame=  165 fps= 11 q=40.0 size=    2826kB time=00:00:05.58 bitrate=4146.3kbits/s speed=0.379x    frame=  186 fps= 12 q=39.0 size=    2826kB time=00:00:06.45 bitrate=3584.6kbits/s speed=0.424x    frame=  207 fps= 13 q=36.0 size=    2826kB time=00:00:07.33 bitrate=3156.9kbits/s speed=0.466x    frame=  228 fps= 14 q=36.0 size=    2826kB time=00:00:08.20 bitrate=2820.4kbits/s speed=0.505x    frame=  249 fps= 15 q=37.0 size=    2826kB time=00:00:09.08 bitrate=2548.8kbits/s speed=0.542x    frame=  270 fps= 16 q=36.0 size=    5899kB time=00:00:09.95 bitrate=4852.6kbits/s speed=0.576x    frame=  291 fps= 16 q=30.0 size=    5899kB time=00:00:10.83 bitrate=4460.7kbits/s speed=0.609x    frame=  312 fps= 17 q=35.0 size=    6630kB time=00:00:11.70 bitrate=4638.5kbits/s speed=0.639x    frame=  333 fps= 18 q=32.0 size=    6630kB time=00:00:12.58 bitrate=4316.0kbits/s speed=0.668x    frame=  354 fps= 18 q=32.0 size=    6630kB time=00:00:13.45 bitrate=4035.4kbits/s speed=0.696x    frame=  375 fps= 19 q=29.0 size=    6630kB time=00:00:14.33 bitrate=3789.0kbits/s speed=0.722x    frame=  396 fps= 19 q=32.0 size=    6630kB time=00:00:15.20 bitrate=3571.1kbits/s speed=0.747x    frame=  417 fps= 20 q=30.0 size=    9808kB time=00:00:16.08 bitrate=4995.6kbits/s speed=0.771x    frame=  438 fps= 20 q=36.0 size=    9808kB time=00:00:16.95 bitrate=4737.9kbits/s speed=0.793x    frame=  459 fps= 21 q=36.0 size=   10621kB time=00:00:17.83 bitrate=4878.6kbits/s speed=0.814x    frame=  480 fps= 21 q=34.0 size=   10621kB time=00:00:18.70 bitrate=4650.4kbits/s speed=0.835x    frame=  500 fps= 22 q=34.0 size=   10621kB time=00:00:19.54 bitrate=4452.0kbits/s speed=0.853x    frame=  500 fps= 22 q=34.0 Lsize=   12676kB time=00:00:20.79 bitrate=4994.0kbits/s speed=0.906x    
video:12671kB audio:0kB subtitle:0kB other streams:0kB global headers:0kB muxing overhead: 0.038120%
bench: utime=0.820s
bench: maxrss=1189944kB
